<svg id="isologo" xmlns="http://www.w3.org/2000/svg" xmlns:xlink="http://www.w3.org/1999/xlink" width="44.098" height="40" viewBox="0 0 44.098 40">
  <defs>
    <clipPath id="clip-path">
      <rect id="Rectángulo_87" data-name="Rectángulo 87" width="44.098" height="40" fill="none"/>
    </clipPath>
  </defs>
  <g id="Grupo_3398" data-name="Grupo 3398" clip-path="url(#clip-path)">
    <path id="Trazado_5915" data-name="Trazado 5915" d="M44,38.814,36.016,27.5l-.426.8a19.009,19.009,0,1,0-16.58,9.713A17.8,17.8,0,0,0,31.5,33.334l.352-.312L42.8,39.893a.641.641,0,0,0,.721,0,1.721,1.721,0,0,0,.569-.744.494.494,0,0,0-.09-.336" transform="translate(0 0)" fill="#000001"/>
    <path id="Trazado_5916" data-name="Trazado 5916" d="M44,38.814,36.016,27.5l-.426.8a19.009,19.009,0,1,0-16.58,9.713A17.8,17.8,0,0,0,31.5,33.334l.352-.312L42.8,39.893a.641.641,0,0,0,.721,0,1.721,1.721,0,0,0,.569-.744.494.494,0,0,0-.09-.336" transform="translate(0 0)" fill="#000001"/>
    <path id="Trazado_5917" data-name="Trazado 5917" d="M277.674,270.348a10.405,10.405,0,0,1-1.914,3.372l-16.336-13.605,12.855,16.621,4.044,5.228a19.123,19.123,0,0,0,2.957-2.254l11.113,7.339-8.456-11.161Z" transform="translate(-247.796 -248.456)" fill="#fdd402"/>
    <path id="Trazado_5918" data-name="Trazado 5918" d="M61.062,65.33a13.135,13.135,0,0,1-3.138.739,10.788,10.788,0,0,1-9.767-16.933A8.9,8.9,0,0,1,49.6,47.468a10.739,10.739,0,0,1,6.483-2.907,11.082,11.082,0,0,1,11.956,9.866c.037.431.1,1.353.082,1.8l4.765,6.1a17.142,17.142,0,0,0,1.412-8.49A17.356,17.356,0,1,0,58.484,72.607a16.98,16.98,0,0,0,6.6-2.057Z" transform="translate(-37.867 -36.256)" fill="#fffffd"/>
  </g>
</svg>
