<svg id="logo_Blanco" data-name="logo Blanco" xmlns="http://www.w3.org/2000/svg" xmlns:xlink="http://www.w3.org/1999/xlink" width="103" height="60" viewBox="0 0 103 60">
  <defs>
    <clipPath id="clip-path">
      <rect id="Rectángulo_8" data-name="Rectángulo 8" width="103" height="60" fill="none"/>
    </clipPath>
  </defs>
  <g id="Grupo_1" data-name="Grupo 1" clip-path="url(#clip-path)">
    <path id="Trazado_1" data-name="Trazado 1" d="M820.469,391.889h.827a4.384,4.384,0,0,1-1.646,1.491,4.769,4.769,0,0,1-2.267.543,4.579,4.579,0,0,1-1.8-.353,4.887,4.887,0,0,1-1.474-.957,4.388,4.388,0,0,1-1-1.414,4.219,4.219,0,0,1-.362-1.741,4.28,4.28,0,0,1,.362-1.75,4.37,4.37,0,0,1,1-1.422,4.9,4.9,0,0,1,1.474-.957,4.753,4.753,0,0,1,4.206.3,4.74,4.74,0,0,1,1.681,1.707h-.758a3.553,3.553,0,0,0-.5-.586,3.716,3.716,0,0,0-1.276-.827,3.9,3.9,0,0,0-1.552-.31,4.021,4.021,0,0,0-1.569.31,3.751,3.751,0,0,0-1.258.827,3.9,3.9,0,0,0-.87,1.241,3.709,3.709,0,0,0,0,2.931,3.889,3.889,0,0,0,.87,1.241,4.588,4.588,0,0,0,1.258.827,4.054,4.054,0,0,0,1.569.293,4.616,4.616,0,0,0,.793-.069,3.39,3.39,0,0,0,.758-.224,4.077,4.077,0,0,0,1.276-.827Z" transform="translate(-751.79 -356.103)" fill="#fff"/>
    <rect id="Rectángulo_7" data-name="Rectángulo 7" width="0.655" height="12.911" transform="translate(71.644 24.736)" fill="#fff"/>
    <path id="Trazado_2" data-name="Trazado 2" d="M989.9,388.768a3.629,3.629,0,0,0,.31,1.491,3.78,3.78,0,0,0,.853,1.215,4.113,4.113,0,0,0,2.836,1.12,4.005,4.005,0,0,0,3.568-2.12h.707a4.491,4.491,0,0,1-1.017,1.465,4.44,4.44,0,0,1-1.491.965,4.8,4.8,0,0,1-1.767.328,4.871,4.871,0,0,1-1.776-.328,4.415,4.415,0,0,1-1.5-.965,4.505,4.505,0,0,1-1.008-1.457,4.36,4.36,0,0,1,0-3.439,4.625,4.625,0,0,1,2.508-2.422,4.757,4.757,0,0,1,1.776-.336,4.693,4.693,0,0,1,1.767.336,4.562,4.562,0,0,1,1.491.974,4.219,4.219,0,0,1,1.31,2.534l.052.638Zm4-3.844a4.074,4.074,0,0,0-2.594.914,3.923,3.923,0,0,0-.879,1.017,3.671,3.671,0,0,0-.474,1.276h7.878a3.682,3.682,0,0,0-.474-1.276,4.013,4.013,0,0,0-.87-1.017,3.931,3.931,0,0,0-1.181-.672,4.082,4.082,0,0,0-1.4-.241" transform="translate(-915.067 -355.465)" fill="#fff"/>
    <path id="Trazado_3" data-name="Trazado 3" d="M1140.685,393.75v-1.379a3.281,3.281,0,0,1-.465.5,3.781,3.781,0,0,1-1.267.758,4.453,4.453,0,0,1-2.991,0,3.792,3.792,0,0,1-1.258-.758l-.448-.465a3.562,3.562,0,0,1-.62-1.465c-.012-.011-.017-.043-.017-.095a1.137,1.137,0,0,0-.017-.181v-.345a.846.846,0,0,0,.017-.164.266.266,0,0,1,.017-.112,3.564,3.564,0,0,1,.62-1.465l.448-.465a3.8,3.8,0,0,1,1.258-.758,4.454,4.454,0,0,1,2.991,0,3.786,3.786,0,0,1,1.267.758,3.967,3.967,0,0,1,.465.517,4.824,4.824,0,0,0-.164-1.138,2.158,2.158,0,0,0-.646-1,3.825,3.825,0,0,0-1.112-.7,3.591,3.591,0,0,0-2.887.112,3.349,3.349,0,0,0-1.155.948h-.741a3.536,3.536,0,0,1,.319-.465,3.08,3.08,0,0,1,.405-.414,3.957,3.957,0,0,1,1.258-.741,4.454,4.454,0,0,1,2.991,0,3.944,3.944,0,0,1,1.267.741,3.108,3.108,0,0,1,.965,1.448,2.735,2.735,0,0,1,.121.7q.017.371.017.715v4.913Zm-.017-3.637a2.852,2.852,0,0,0-1.1-1.732,3.694,3.694,0,0,0-.965-.508,3.379,3.379,0,0,0-1.138-.19,3.132,3.132,0,0,0-.457.034q-.233.035-.44.086a3.286,3.286,0,0,0-.81.31,3.173,3.173,0,0,0-.672.474,2.352,2.352,0,0,0-.5.646,2.454,2.454,0,0,0-.328.931.347.347,0,0,0-.017.155v.405a.156.156,0,0,0,.017.095,2.451,2.451,0,0,0,.328.931,2.351,2.351,0,0,0,.5.646,3.164,3.164,0,0,0,.672.474,3.283,3.283,0,0,0,.81.31q.207.052.44.086a3.09,3.09,0,0,0,.457.034,3.376,3.376,0,0,0,1.138-.19,3.682,3.682,0,0,0,.965-.509,2.852,2.852,0,0,0,1.1-1.732Z" transform="translate(-1048.58 -356.103)" fill="#fff"/>
    <path id="Trazado_4" data-name="Trazado 4" d="M1270.357,387.941a.035.035,0,0,1,.009-.026.035.035,0,0,0,.009-.026v-2.81h.638v1.4a1.4,1.4,0,0,1,.2-.25q.112-.112.25-.233a3.779,3.779,0,0,1,1.267-.758,4.4,4.4,0,0,1,1.508-.259,4.229,4.229,0,0,1,1.491.267,3.906,3.906,0,0,1,1.267.767,2.705,2.705,0,0,1,.224.215q.1.112.207.233a3.247,3.247,0,0,1,.405.7,4.3,4.3,0,0,1,.233.767v.129a1.524,1.524,0,0,0,.017.215v5.482h-.638v-5.706a2.315,2.315,0,0,0-.121-.474,3.662,3.662,0,0,0-.207-.457,2.669,2.669,0,0,0-.517-.646,3.181,3.181,0,0,0-.672-.474,3.68,3.68,0,0,0-.81-.31q-.207-.052-.431-.086a2.961,2.961,0,0,0-.448-.034,3.453,3.453,0,0,0-1.146.19,3.65,3.65,0,0,0-.974.509,2.85,2.85,0,0,0-1.1,1.732v5.775h-.638Z" transform="translate(-1175.08 -356.103)" fill="#fff"/>
    <path id="Trazado_5" data-name="Trazado 5" d="M0,60H60V0H0ZM10.687,37.625a8.167,8.167,0,1,1,7.439-8.835,8.068,8.068,0,0,1-.664,3.995l-2.242-2.869c.006-.209-.021-.643-.038-.845a5.214,5.214,0,0,0-5.626-4.642A5.054,5.054,0,0,0,6.5,25.8a4.182,4.182,0,0,0-.677.785,5.076,5.076,0,0,0,4.6,7.967A6.18,6.18,0,0,0,11.9,34.2l1.891,2.456a7.991,7.991,0,0,1-3.1.968m5.113-2.4a8.978,8.978,0,0,1-1.391,1.061l-1.9-2.46L6.458,26.006l7.687,6.4a4.9,4.9,0,0,0,.9-1.587l2.006,2.607,3.979,5.251Zm14.491,2.312-2.97,0v-.773l-.231.153a5.5,5.5,0,0,1-.873.469,4.374,4.374,0,0,1-1.729.332,4.779,4.779,0,0,1-2.019-.42,4.71,4.71,0,0,1-1.554-1.146,5.166,5.166,0,0,1-1-1.7,6.083,6.083,0,0,1-.349-2.07V26.134h2.97v6.243a2.391,2.391,0,0,0,4.782,0V26.134h2.97Zm1.761,0-.006-11.433,2.97,0,.006,11.434Zm3.129-13.259a1.566,1.566,0,0,1-.39.539l0,0a1.814,1.814,0,0,1-.579.375,1.739,1.739,0,0,1-.7.139,1.6,1.6,0,0,1-.679-.14,1.75,1.75,0,0,1-.563-.377,1.714,1.714,0,0,1-.386-.541,1.674,1.674,0,0,1-.135-.658,1.77,1.77,0,0,1,.135-.68,1.833,1.833,0,0,1,.39-.554,1.874,1.874,0,0,1,.56-.379,1.83,1.83,0,0,1,.679-.128,2.005,2.005,0,0,1,.7.129,1.957,1.957,0,0,1,.579.382,1.68,1.68,0,0,1,.535,1.23,1.558,1.558,0,0,1-.144.658M46.2,35.991a5.864,5.864,0,0,1-1.854,1.253,5.746,5.746,0,0,1-2.276.456h0a5.768,5.768,0,0,1-2.273-.452,5.838,5.838,0,0,1-3.111-3.1,5.86,5.86,0,0,1,0-4.527,5.837,5.837,0,0,1,3.108-3.1,5.936,5.936,0,0,1,4.553,0A5.87,5.87,0,0,1,46.2,27.771l.117.118-2.058,2.064-.118-.118a2.8,2.8,0,0,0-2.072-.852,2.9,2.9,0,0,0-2.074.853,2.893,2.893,0,0,0,0,4.1,2.861,2.861,0,0,0,.954.636,2.982,2.982,0,0,0,1.118.212,2.752,2.752,0,0,0,2.07-.852l.078-.081,2.1,2.024Zm11.975,1.545-4.219,0-3.544-3.4,0,3.4-2.97,0-.008-15.66,2.97,0,0,7.757,3.551-3.549,4.214.018L52.345,31.9Z" fill="#fff"/>
  </g>
</svg>
